<svg xmlns="http://www.w3.org/2000/svg" xmlns:xlink="http://www.w3.org/1999/xlink" width="459" height="96" version="1.1" viewBox="0 0 459 96"><title>Group</title><desc>Created with Sketch.</desc><g fill="none" fill-rule="evenodd" stroke="none" stroke-width="1"><g transform="translate(-4.000000, -20.000000)"><text fill="#000" font-family="SourceSansPro-Regular, Source Sans Pro" font-size="48" font-weight="normal"><tspan x="0" y="47">Hello is </tspan> <tspan x="165.043" y="47" font-family="IRMitra" font-size="64">سلام</tspan> <tspan x="248.626" y="47"> in Persian.</tspan></text><polygon fill="#D0011B" points="173.104 107.632 175.12 105.424 165.472 96.448 246.544 96.448 246.544 93.184 165.472 93.184 175.12 84.208 173.104 82 160 94.72 160 94.912"/><polygon fill="#D0011B" points="17.104 107.632 19.12 105.424 9.472 96.448 145.544 96.448 145.544 93.184 9.472 93.184 19.12 84.208 17.104 82 4 94.72 4 94.912" transform="translate(74.772000, 94.816000) scale(-1, 1) translate(-74.772000, -94.816000)"/><polygon fill="#D0011B" points="273.104 107.632 275.12 105.424 265.472 96.448 462.544 96.448 462.544 93.184 265.472 93.184 275.12 84.208 273.104 82 260 94.72 260 94.912" transform="translate(361.272000, 94.816000) scale(-1, 1) translate(-361.272000, -94.816000)"/><text fill="#000" font-family="SourceSansPro-Light, Source Sans Pro" font-size="18" font-weight="300"><tspan x="54" y="115">Run 1</tspan></text><text fill="#000" font-family="SourceSansPro-Light, Source Sans Pro" font-size="18" font-weight="300"><tspan x="182" y="115">Run 2</tspan></text><text fill="#000" font-family="SourceSansPro-Light, Source Sans Pro" font-size="18" font-weight="300"><tspan x="340" y="115">Run 3</tspan></text></g></g></svg>