<svg xmlns="http://www.w3.org/2000/svg" xmlns:xlink="http://www.w3.org/1999/xlink" width="1277" height="433" version="1.1" viewBox="0 0 1277 433"><title>Visual order</title><desc>Created with Sketch.</desc><g fill="none" fill-rule="evenodd" stroke="none" stroke-width="1"><g><g stroke="#D0021B" stroke-linecap="square" stroke-width="3"><path d="M993.5,2.55795385e-13 L993.5,429" transform="translate(-1.000000, -45.000000) translate(144.000000, 47.000000)"/><path d="M823.5,2.27373675e-13 L823.5,429" transform="translate(-1.000000, -45.000000) translate(144.000000, 47.000000)"/><path d="M663.5,2.27373675e-13 L663.5,429" transform="translate(-1.000000, -45.000000) translate(144.000000, 47.000000)"/><path d="M493.5,2.27373675e-13 L493.5,429" transform="translate(-1.000000, -45.000000) translate(144.000000, 47.000000)"/><path d="M323.5,2.27373675e-13 L323.5,429" transform="translate(-1.000000, -45.000000) translate(144.000000, 47.000000)"/><path d="M163.5,2.27373675e-13 L163.5,429" transform="translate(-1.000000, -45.000000) translate(144.000000, 47.000000)"/><path d="M1.5,382 L1.5,429" transform="translate(-1.000000, -45.000000) translate(144.000000, 47.000000)"/><path d="M1.5,263 L1.5,335" transform="translate(-1.000000, -45.000000) translate(144.000000, 47.000000)"/><path d="M1.5,2.27373675e-13 L1.5,217" transform="translate(-1.000000, -45.000000) translate(144.000000, 47.000000)"/></g><g fill="#000" font-size="36"><text font-family="SourceSansPro-Light, Source Sans Pro" font-weight="300" transform="translate(-1.000000, -45.000000) translate(0.000000, 380.000000)"><tspan x="1207" y="95">7</tspan></text><text font-family="SourceSansPro-Light, Source Sans Pro" font-weight="300" transform="translate(-1.000000, -45.000000) translate(0.000000, 380.000000)"><tspan x="1041.143" y="95">6</tspan></text><text font-family="SourceSansPro-Light, Source Sans Pro" font-weight="300" transform="translate(-1.000000, -45.000000) translate(0.000000, 380.000000)"><tspan x="875.286" y="95">5</tspan></text><text font-family="SourceSansPro-Light, Source Sans Pro" font-weight="300" transform="translate(-1.000000, -45.000000) translate(0.000000, 380.000000)"><tspan x="709.429" y="95">4</tspan></text><text font-family="SourceSansPro-Light, Source Sans Pro" font-weight="300" transform="translate(-1.000000, -45.000000) translate(0.000000, 380.000000)"><tspan x="543.571" y="95">3</tspan></text><text font-family="SourceSansPro-Light, Source Sans Pro" font-weight="300" transform="translate(-1.000000, -45.000000) translate(0.000000, 380.000000)"><tspan x="377.714" y="95">2</tspan></text><text font-family="SourceSansPro-Light, Source Sans Pro" font-weight="300" transform="translate(-1.000000, -45.000000) translate(0.000000, 380.000000)"><tspan x="211.857" y="95">1</tspan></text><text font-family="SourceSansPro-Light, Source Sans Pro" font-weight="300" transform="translate(-1.000000, -45.000000) translate(0.000000, 380.000000)"><tspan x="46" y="95">0</tspan></text><text font-family="SourceSansPro-It, Source Sans Pro" font-style="italic" font-weight="normal" transform="translate(-1.000000, -45.000000) translate(0.000000, 380.000000)"><tspan x="0" y="35">Position in display</tspan></text></g><g fill="#000" font-size="36"><text font-family="SourceSansPro-Light, Source Sans Pro" font-weight="300" transform="translate(-1.000000, -45.000000) translate(0.000000, 260.000000)"><tspan x="1207" y="95">0</tspan></text><text font-family="SourceSansPro-Light, Source Sans Pro" font-weight="300" transform="translate(-1.000000, -45.000000) translate(0.000000, 260.000000)"><tspan x="1041.143" y="95">1</tspan></text><text font-family="SourceSansPro-Light, Source Sans Pro" font-weight="300" transform="translate(-1.000000, -45.000000) translate(0.000000, 260.000000)"><tspan x="875.286" y="95">2</tspan></text><text font-family="SourceSansPro-Light, Source Sans Pro" font-weight="300" transform="translate(-1.000000, -45.000000) translate(0.000000, 260.000000)"><tspan x="709.429" y="95">3</tspan></text><text font-family="SourceSansPro-Light, Source Sans Pro" font-weight="300" transform="translate(-1.000000, -45.000000) translate(0.000000, 260.000000)"><tspan x="543.571" y="95">7</tspan></text><text font-family="SourceSansPro-Light, Source Sans Pro" font-weight="300" transform="translate(-1.000000, -45.000000) translate(0.000000, 260.000000)"><tspan x="377.714" y="95">6</tspan></text><text font-family="SourceSansPro-Light, Source Sans Pro" font-weight="300" transform="translate(-1.000000, -45.000000) translate(0.000000, 260.000000)"><tspan x="211.857" y="95">5</tspan></text><text font-family="SourceSansPro-Light, Source Sans Pro" font-weight="300" transform="translate(-1.000000, -45.000000) translate(0.000000, 260.000000)"><tspan x="46" y="95">4</tspan></text><text font-family="SourceSansPro-It, Source Sans Pro" font-style="italic" font-weight="normal" transform="translate(-1.000000, -45.000000) translate(0.000000, 260.000000)"><tspan x="0" y="35">Position in memory</tspan></text></g><g fill="#000"><g><text font-family="IRMitra" font-size="144" font-weight="normal" transform="translate(-1.000000, -45.000000) translate(1167.000000, 0.000000)"><tspan x="0" y="133">ک</tspan></text><text font-family="SourceSansPro-Light, Source Sans Pro" font-size="32" font-weight="300" transform="translate(-1.000000, -45.000000) translate(1167.000000, 0.000000)"><tspan x="5" y="217">U+06A9</tspan></text></g><g><text font-family="IRMitra" font-size="144" font-weight="normal" transform="translate(-1.000000, -45.000000) translate(1001.000000, 0.000000)"><tspan x="12" y="133">ل</tspan></text><text font-family="SourceSansPro-Light, Source Sans Pro" font-size="32" font-weight="300" transform="translate(-1.000000, -45.000000) translate(1001.000000, 0.000000)"><tspan x=".714" y="217">U+0644</tspan></text></g><g><text font-family="IRMitra" font-size="144" font-weight="normal" transform="translate(-1.000000, -45.000000) translate(835.000000, 0.000000)"><tspan x="22" y="133">م</tspan></text><text font-family="SourceSansPro-Light, Source Sans Pro" font-size="32" font-weight="300" transform="translate(-1.000000, -45.000000) translate(835.000000, 0.000000)"><tspan x=".429" y="217">U+0645</tspan></text></g><g><text font-family="IRMitra" font-size="144" font-weight="normal" transform="translate(-1.000000, -45.000000) translate(669.000000, 0.000000)"><tspan x="27.143" y="133">ه</tspan></text><text font-family="SourceSansPro-Light, Source Sans Pro" font-size="32" font-weight="300" transform="translate(-1.000000, -45.000000) translate(669.000000, 0.000000)"><tspan x=".143" y="217">U+0647</tspan></text></g><g><text font-family="SourceSansPro-Regular, Source Sans Pro" font-size="120" font-weight="normal" transform="translate(-1.000000, -45.000000) translate(498.000000, 25.000000)"><tspan x="15" y="118">d</tspan></text><text font-family="SourceSansPro-Light, Source Sans Pro" font-size="32" font-weight="300" transform="translate(-1.000000, -45.000000) translate(498.000000, 25.000000)"><tspan x="0" y="192">U+0064</tspan></text></g><g><text font-family="SourceSansPro-Regular, Source Sans Pro" font-size="120" font-weight="normal" transform="translate(-1.000000, -45.000000) translate(332.000000, 25.000000)"><tspan x="27.786" y="118">r</tspan></text><text font-family="SourceSansPro-Light, Source Sans Pro" font-size="32" font-weight="300" transform="translate(-1.000000, -45.000000) translate(332.000000, 25.000000)"><tspan x=".286" y="192">U+0072</tspan></text></g><g><text font-family="SourceSansPro-Regular, Source Sans Pro" font-size="120" font-weight="normal" transform="translate(-1.000000, -45.000000) translate(166.000000, 25.000000)"><tspan x="16" y="118">o</tspan></text><text font-family="SourceSansPro-Light, Source Sans Pro" font-size="32" font-weight="300" transform="translate(-1.000000, -45.000000) translate(166.000000, 25.000000)"><tspan x=".571" y="192">U+006F</tspan></text></g><g><text font-family="SourceSansPro-Regular, Source Sans Pro" font-size="120" font-weight="normal" transform="translate(-1.000000, -45.000000) translate(0.000000, 25.000000)"><tspan x="5.857" y="118">w</tspan></text><text font-family="SourceSansPro-Light, Source Sans Pro" font-size="32" font-weight="300" transform="translate(-1.000000, -45.000000) translate(0.000000, 25.000000)"><tspan x=".857" y="192">U+0077</tspan></text></g></g></g></g></svg>